<?xml version="1.0" encoding="utf-8"?>
<!-- Generator: Adobe Illustrator 28.0.0, SVG Export Plug-In . SVG Version: 6.00 Build 0)  -->
<svg version="1.1" id="Layer_1" xmlns="http://www.w3.org/2000/svg" xmlns:xlink="http://www.w3.org/1999/xlink" x="0px" y="0px"
	 viewBox="0 0 426.7 426.7" style="enable-background:new 0 0 426.7 426.7;" xml:space="preserve">
<path d="M426.7,212.4C426.2,94.6,330.3-0.5,212.4,0S-0.5,96.4,0,214.2s96.4,212.9,214.2,212.4C332,426,427,330.2,426.7,212.4z
	 M21.3,214.1c-0.4-106,85.1-192.4,191.2-192.8s192.4,85.1,192.8,191.2c0.4,106-85.1,192.4-191.2,192.8
	C108.2,405.7,21.9,320.1,21.3,214.1z"/>
<path d="M296,177.7c3.9-4.4,3.4-11.2-1-15.1c-4.4-3.9-11.2-3.4-15.1,1l-66.6,76.2l-66.6-76.2c-3.9-4.4-10.6-4.9-15.1-1
	c-4.4,3.9-4.9,10.6-1,15.1l74.7,85.3c2,2.3,5,3.6,8,3.6s6-1.3,8-3.6L296,177.7z"/>
</svg>
